<?xml version="1.0" encoding="UTF-8" standalone="no"?>
<!-- Created with Inkscape (http://www.inkscape.org/) -->
<svg
   xmlns:svg="http://www.w3.org/2000/svg"
   xmlns="http://www.w3.org/2000/svg"
   version="1.0"
   width="956.69287"
   height="227.83464"
   id="svg2">
  <defs
     id="defs4" />
  <g
     transform="translate(1490.7055,645.58055)"
     id="layer1">
    <g
       transform="translate(35.433056,35.360395)"
       id="g3555">
      <path
         d="M -1051.4845,-644.43068 L -1063.0154,-550.65051 L -1080.7497,-550.65051 L -1069.0468,-644.43068 L -1136.1432,-644.43068 L -1144.3103,-579.57154 C -1145.2099,-570.66915 -1146.8683,-554.78879 -1143.3402,-543.71166 C -1135.4939,-518.88197 -1114.6774,-509.98741 -1114.6774,-509.98741 L -1112.2445,-508.66535 C -1103.5298,-504.21415 -1093.5322,-502.77475 -1084.5047,-502.77475 L -1078.2464,-502.77475 C -1061.6073,-502.82169 -1048.0425,-506.4906 -1036.9653,-512.03699 C -1036.9418,-512.09957 -1036.2926,-512.31861 -1036.2926,-512.31861 C -1032.6784,-514.46989 -1012.1591,-525.07766 -999.39223,-550.17332 C -994.65159,-559.64677 -994.26827,-561.65724 -991.61633,-576.97436 L -983.40235,-644.43068"
         id="path2955"
         style="fill:#000000;fill-opacity:1;fill-rule:nonzero;stroke:none" />
      <path
         d="M -1257.3503,-508.61832 L -1251.5066,-556.2281 L -1231.2377,-556.2281 L -1230.8622,-556.43932 L -1236.7449,-508.61832 L -1170.9236,-508.61832 L -1154.2453,-644.43841 L -1220.0745,-644.43841 L -1225.8399,-597.37623 L -1225.9573,-597.43099 L -1246.3123,-597.43099 L -1246.5,-597.37623 L -1240.7659,-644.43841 L -1306.6029,-644.43841 L -1323.1951,-508.61832 L -1257.3503,-508.61832"
         id="path2959"
         style="fill:#000000;fill-opacity:1;fill-rule:nonzero;stroke:none" />
      <path
         d="M -619.96899,-638.54 L -619.96899,-633.80718 L -617.65343,-633.80718 C -615.16577,-633.80718 -614.03146,-634.37825 -614.03146,-636.08363 C -614.03146,-637.85941 -615.16577,-638.54 -617.73166,-638.54 L -619.96899,-638.54 z M -611.22306,-636.35743 C -611.22306,-634.31567 -612.45124,-632.90756 -614.53212,-632.48512 L -611.31693,-625.90612 L -614.36784,-625.90612 L -617.27011,-632.08616 L -619.96899,-632.08616 L -619.96899,-625.90612 L -622.66787,-625.90612 L -622.66787,-640.34708 L -617.27011,-640.34708 C -613.23353,-640.34708 -611.22306,-638.97026 -611.22306,-636.35743 z M -609.70543,-640.63652 C -611.81759,-642.77215 -614.53212,-643.92993 -617.53609,-643.92993 C -620.52441,-643.92993 -623.20764,-642.7878 -625.22594,-640.75386 C -627.36157,-638.57129 -628.58193,-635.77854 -628.58193,-632.87627 C -628.58193,-630.00529 -627.41633,-627.25947 -625.31981,-625.16295 C -623.25458,-623.04296 -620.49312,-621.86953 -617.65343,-621.86953 C -614.68075,-621.86953 -611.96623,-623.01167 -609.73672,-625.13166 C -607.66367,-627.1343 -606.56847,-629.82536 -606.56847,-632.77457 C -606.56847,-635.84894 -607.6402,-638.57129 -609.70543,-640.63652 z M -608.532,-641.77083 C -606.2008,-639.41616 -604.87874,-636.24791 -604.87874,-632.87627 C -604.87874,-629.40293 -606.14604,-626.25815 -608.55547,-623.96606 C -611.08225,-621.53315 -614.26614,-620.1798 -617.55956,-620.1798 C -620.97814,-620.1798 -624.10727,-621.53315 -626.52453,-624.01299 C -628.92614,-626.43807 -630.24037,-629.53591 -630.24037,-632.87627 C -630.24037,-636.23226 -628.84009,-639.46309 -626.39154,-641.99769 C -624.06033,-644.33672 -621.0329,-645.58055 -617.55956,-645.58055 C -614.16445,-645.58055 -610.98837,-644.25067 -608.532,-641.77083"
         id="path2963"
         style="fill:#000000;fill-opacity:1;fill-rule:nonzero;stroke:none" />
      <path
         d="M -658.28532,-544.32958 L -737.96091,-544.39216 L -735.50454,-562.40033 L -656.04017,-562.40033 L -651.80019,-597.02421 L -730.7639,-596.96163 L -728.53439,-613.27224 L -649.81319,-613.27224 L -645.98782,-644.46189 L -792.11059,-644.46189 L -804.55672,-543.13269 L -854.54465,-568.61167 C -854.54465,-568.61167 -840.74517,-572.55438 -833.20395,-577.8035 C -825.342,-583.3186 -822.03294,-588.78676 -820.5466,-591.33701 C -817.76949,-596.02289 -814.74988,-601.46758 -814.4135,-611.70767 C -814.038,-622.24503 -819.59221,-629.80972 -822.55707,-633.26741 C -825.55322,-636.85027 -832.89104,-644.59488 -845.82219,-644.4306 L -965.40207,-644.4306 L -969.25091,-613.74943 L -874.57893,-613.74943 L -876.83973,-597.18067 L -971.21444,-597.18067 L -982.11165,-508.62615 L -924.63727,-508.62615 L -919.04394,-553.59182 L -811.10444,-488.4667 L -808.71065,-508.59486 L -662.65829,-508.59486 L -658.28532,-544.32958"
         id="path2967"
         style="fill:#000000;fill-opacity:1;fill-rule:nonzero;stroke:none" />
      <path
         d="M -1440.1778,-644.45407 C -1448.9628,-644.42278 -1456.7544,-641.40316 -1463.0048,-636.49824 L -1463.3021,-636.44349 C -1463.3803,-636.44349 -1463.3803,-636.49824 -1463.3803,-636.49824 L -1463.3803,-636.44349 C -1483.3364,-620.87604 -1487.6624,-586.76065 -1459.3438,-572.74213 C -1455.5575,-570.92723 -1392.967,-545.52648 -1392.967,-545.52648 L -1392.8496,-545.44825 L -1486.1683,-545.4326 L -1490.7055,-508.52446 L -1376.1009,-508.57139 C -1358.656,-508.55575 -1346.6323,-515.17387 -1338.3166,-526.93942 C -1335.3205,-530.96035 -1333.3022,-534.95782 -1331.9567,-539.03352 C -1327.6072,-551.83951 -1328.452,-566.3978 -1337.0963,-573.41489 C -1338.9659,-574.84647 -1340.5618,-576.16853 -1342.275,-577.17767 C -1343.4484,-577.87391 -1345.4041,-579.09427 -1347.0782,-579.91567 C -1361.9573,-586.94057 -1425.5647,-613.85896 -1425.5647,-613.85896 L -1327.1847,-613.90589 L -1323.4063,-644.42278 L -1440.1778,-644.45407"
         id="path2971"
         style="fill:#000000;fill-opacity:1;fill-rule:nonzero;stroke:none" />
    </g>
  </g>
</svg>
