<?xml version="1.0" encoding="UTF-8" standalone="no"?>
<!-- Created with Inkscape (http://www.inkscape.org/) -->
<svg xmlns:dc="http://purl.org/dc/elements/1.1/" xmlns:cc="http://web.resource.org/cc/" xmlns:rdf="http://www.w3.org/1999/02/22-rdf-syntax-ns#" xmlns:svg="http://www.w3.org/2000/svg" xmlns="http://www.w3.org/2000/svg" xmlns:sodipodi="http://sodipodi.sourceforge.net/DTD/sodipodi-0.dtd" xmlns:inkscape="http://www.inkscape.org/namespaces/inkscape" id="svg2321" sodipodi:version="0.32" inkscape:version="0.45.1" width="698" height="171" version="1.0" sodipodi:docbase="C:\Users\Chris\Desktop\SVGs" sodipodi:docname="Ibanez logo.svg" inkscape:output_extension="org.inkscape.output.svg.inkscape">
  <metadata id="metadata2326">
    <rdf:RDF>
      <cc:Work rdf:about="">
        <dc:format>image/svg+xml</dc:format>
        <dc:type rdf:resource="http://purl.org/dc/dcmitype/StillImage"/>
      </cc:Work>
    </rdf:RDF>
  </metadata>
  <defs id="defs2324"/>
  <sodipodi:namedview inkscape:window-height="575" inkscape:window-width="765" inkscape:pageshadow="2" inkscape:pageopacity="0.0" guidetolerance="10.0" gridtolerance="10.0" objecttolerance="10.0" borderopacity="1.0" bordercolor="#666666" pagecolor="#ffffff" id="base" inkscape:zoom="0.97421203" inkscape:cx="349" inkscape:cy="85.5" inkscape:window-x="23" inkscape:window-y="23" inkscape:current-layer="svg2321"/>
  <path style="fill: rgb(0, 0, 0);" d="M 163.23374,169.63451 C 160.36641,168.26939 155.92565,165.0577 153.36537,162.49743 L 148.71033,157.84238 L 144.57869,161.75743 C 135.63981,170.2277 142.57629,169.49214 68.697059,169.80411 L 2.9470587,170.08175 L 2.9470587,167.98268 C 2.9470587,164.9989 5.0312937,163.29372 9.5387957,162.58978 C 11.688341,162.25409 14.198611,161.7461 15.117174,161.46092 C 16.035737,161.17573 17.787796,160.74972 19.010639,160.51423 C 23.097982,159.72708 31.386451,154.79775 34.768881,151.14247 C 38.399105,147.2194 41.202824,142.25682 42.46154,137.52647 C 42.900594,135.87647 43.388142,134.07647 43.54498,133.52647 C 43.701818,132.97647 44.103112,131.40147 44.436745,130.02647 C 44.770378,128.65147 45.246685,126.73897 45.495205,125.77647 C 45.743725,124.81397 46.150393,123.23897 46.398913,122.27647 C 46.647433,121.31397 47.119099,119.40147 47.447059,118.02647 C 47.775019,116.65147 48.232665,114.85147 48.46405,114.02647 C 48.947266,112.30357 54.749575,90.531488 55.526359,87.526471 C 55.810704,86.426471 56.225019,84.851471 56.447059,84.026471 C 56.669099,83.201471 57.097433,81.513971 57.398913,80.276471 C 57.700393,79.038971 58.193725,77.013971 58.495205,75.776471 C 58.796685,74.538971 59.226863,72.851471 59.451157,72.026471 C 61.095287,65.979018 67.166148,43.137495 67.557504,41.526475 C 67.824719,40.426475 68.225019,38.851475 68.447059,38.026475 C 69.880135,32.701805 70.152828,31.261505 70.151034,29.026475 C 70.14753,24.661275 69.55152,22.026475 68.567588,22.026475 C 68.042964,22.026475 67.886453,21.753745 68.219786,21.420405 C 69.069442,20.570755 64.755968,16.446635 60.542307,14.079965 C 58.598497,12.988195 55.017209,11.910645 52.583889,11.685415 C 47.015878,11.170035 45.775541,10.399475 46.149209,7.6878847 C 46.810017,2.8925847 45.539272,2.9929447 102.12084,3.2676747 C 153.13704,3.5153847 155.43521,3.6059747 155.77726,5.3826947 C 156.2942,8.0678647 154.97453,8.9641547 148.16515,10.552675 C 141.32273,12.148895 133.94705,15.110825 133.94705,16.262375 C 133.94705,16.682625 133.46683,17.026475 132.8799,17.026475 C 130.19213,17.026475 122.42675,27.338745 121.32265,32.374265 C 121.06311,33.557975 120.66909,35.201475 120.44705,36.026475 C 120.22501,36.851475 119.83947,38.426475 119.5903,39.526475 C 119.34112,40.626475 117.72101,46.701475 115.99005,53.026475 C 114.25909,59.351475 112.61963,65.426471 112.3468,66.526471 C 112.07398,67.626471 111.66909,69.201471 111.44705,70.026471 C 111.22501,70.851471 110.77501,72.651471 110.44705,74.026471 C 110.11909,75.401471 109.66909,77.201471 109.44705,78.026471 C 109.22501,78.851471 108.81155,80.426471 108.52825,81.526471 C 107.99172,83.609717 103.19325,101.40789 102.46214,104.02647 C 102.2318,104.85147 101.77502,106.65147 101.44706,108.02647 C 101.1191,109.40147 100.6691,111.20147 100.44706,112.02647 C 100.22502,112.85147 99.843995,114.42647 99.600335,115.52647 C 99.356685,116.62647 97.961165,121.80147 96.499185,127.02647 C 95.037215,132.25147 93.639905,137.31397 93.394055,138.27647 C 93.148205,139.23897 92.680898,141.03897 92.35559,142.27647 C 92.030282,143.51397 91.53747,146.62523 91.260453,149.19037 C 90.829146,153.18422 91.056423,154.01463 92.842415,154.97046 C 95.385015,156.33123 100.58422,156.60106 103.90041,155.54436 C 109.29015,153.82694 111.21567,149.80726 116.44344,129.35972 C 121.15508,110.93093 121.76388,108.56483 122.44705,106.02647 C 122.66909,105.20147 123.11909,103.40147 123.44705,102.02647 C 124.53416,97.468665 124.96898,95.813799 126.73143,89.526471 C 127.34813,87.326471 128.08407,84.401471 128.36684,83.026471 C 128.89173,80.474231 135.51758,55.151115 136.60889,51.526475 C 137.36072,49.029375 137.57325,40.038725 136.92802,38.026475 C 136.32375,36.141955 133.50775,33.536125 129.19531,30.870885 C 123.14083,27.129005 125.25111,26.547365 146.04079,26.227915 C 161.34307,25.992785 166.21139,26.239565 168.95872,27.389655 C 178.32458,31.310415 181.50239,38.622375 178.57946,49.526475 C 178.28459,50.626475 177.79668,52.538975 177.4952,53.776475 C 177.19372,55.013975 176.70038,57.038975 176.3989,58.276475 C 176.09742,59.513975 175.62436,61.426475 175.34764,62.526475 C 175.07093,63.626475 174.62751,65.573613 174.36227,66.853453 C 172.95516,73.643077 170.03164,85.080584 169.47167,85.986635 C 168.4098,87.704784 169.85646,87.179621 174.26687,84.245897 C 182.61897,78.690242 188.18768,77.044361 197.22181,77.461363 C 210.93647,78.094413 223.62605,88.969886 224.26005,100.63422 C 224.4373,103.89535 224.60046,104.041 227.3904,103.42865 C 229.00924,103.07333 230.94396,102.17242 231.68976,101.42661 C 232.43557,100.68081 233.5982,99.723171 234.27337,99.298536 C 234.94855,98.8739 237.05737,96.501471 238.95963,94.026471 C 243.82967,87.690141 244.28234,87.28083 250.68091,83.427811 C 260.01898,77.804719 266.27305,76.526471 284.44705,76.526471 C 299.78084,76.526471 305.83531,77.278276 313.66414,80.154463 C 321.09246,82.883508 325.49709,86.2076 327.81572,90.834403 C 330.18431,95.560886 329.92788,97.953686 324.90164,118.02647 C 322.62926,127.10147 320.60653,135.20147 320.40669,136.02647 C 319.24911,140.80529 318.88728,142.24621 318.33502,144.27647 C 316.44325,151.23118 319.10062,155.96461 324.62207,155.47524 C 326.17581,155.33753 327.99918,155.18022 328.674,155.12566 C 330.19836,155.00243 332.84216,151.06791 333.52864,147.90096 C 334.5948,142.98242 334.8786,141.81748 335.44705,140.02647 C 335.76829,139.01434 336.2372,137.25029 336.48908,136.10636 C 336.74096,134.96242 337.15038,133.23897 337.3989,132.27647 C 337.64742,131.31397 338.09742,129.51397 338.3989,128.27647 C 338.70038,127.03897 339.19372,125.01397 339.4952,123.77647 C 339.79668,122.53897 340.22501,120.85147 340.44705,120.02647 C 340.66909,119.20147 341.07576,117.62647 341.35076,116.52647 C 341.62576,115.42647 342.07576,113.62647 342.35076,112.52647 C 342.62576,111.42647 343.07576,109.62647 343.35076,108.52647 C 344.49422,103.95261 345.50762,99.6977 345.97064,97.526471 C 346.90194,93.159351 342.44322,88.252293 334.58394,84.994806 C 330.61441,83.349528 328.94705,82.112442 328.94705,80.812566 C 328.94705,79.066172 330.25546,78.971753 353.22428,79.060647 C 379.09192,79.16076 381.88155,79.618138 386.30275,84.484093 C 388.58202,86.992644 390.15725,90.877343 389.39519,92.110387 C 388.35925,93.786569 389.87857,93.057023 392.67977,90.533203 C 398.60068,85.198574 401.4965,83.028866 402.69705,83.027692 C 403.38455,83.027021 403.94705,82.549913 403.94705,81.967454 C 403.94705,81.384995 404.39705,81.186552 404.94705,81.526471 C 405.49705,81.86639 405.94705,81.592947 405.94705,80.918821 C 405.94705,80.244695 406.24315,79.989233 406.60504,80.351128 C 406.96694,80.713023 407.75444,80.627972 408.35504,80.162125 C 410.59161,78.427374 419.54248,76.910773 426.38245,77.107629 C 431.59488,77.257644 434.73931,77.957291 438.37601,79.776243 C 444.32976,82.754097 445.16051,83.540882 447.68142,88.589159 C 449.59692,92.425044 450.05781,100.4501 448.65417,105.52647 C 448.35001,106.62647 446.91707,111.80147 445.46986,117.02647 C 444.02265,122.25147 442.61822,127.65147 442.34891,129.02647 C 442.0796,130.40147 441.41713,133.10147 440.87675,135.02647 C 440.33637,136.95147 439.62719,141.09465 439.30079,144.23354 C 438.74064,149.62041 438.87806,150.11133 441.75027,152.98354 C 444.64097,155.87423 445.18478,156.02252 452.62013,155.94752 C 456.92493,155.9041 459.87508,155.63845 459.17601,155.35718 C 457.31444,154.60818 454.69536,149.07679 454.20567,144.86003 C 453.97095,142.8388 454.75338,137.67852 455.94938,133.36003 C 457.14259,129.05157 458.3052,124.73897 458.53296,123.77647 C 458.76071,122.81397 459.15038,121.23897 459.3989,120.27647 C 459.64742,119.31397 460.11909,117.40147 460.44705,116.02647 C 460.77501,114.65147 461.24668,112.73897 461.4952,111.77647 C 461.74372,110.81397 462.15038,109.23897 462.3989,108.27647 C 462.64742,107.31397 463.06311,105.55798 463.32265,104.37426 C 464.27293,100.04027 467.72963,94.592055 472.92977,89.232161 C 478.05017,83.954461 491.44518,77.965918 501.8327,76.310453 C 511.27015,74.806401 532.0569,75.432743 543.28253,77.559412 C 551.10037,79.040482 562.07069,86.998087 562.9177,91.802282 C 564.09204,98.46308 563.02414,110.12718 560.53964,117.77647 L 557.86004,126.02647 L 529.46256,126.02647 C 511.68104,126.02647 500.83491,126.3989 500.44937,127.02271 C 500.11073,127.57064 499.61251,129.03314 499.34221,130.27271 C 499.07191,131.51228 498.64742,133.31397 498.3989,134.27647 C 495.22014,146.58762 494.93072,149.55814 496.66833,152.03892 C 498.00414,153.94607 498.89953,154.18941 503.09703,153.78608 C 508.30534,153.28563 509.21924,152.54876 519.9435,140.20284 C 522.41655,137.35584 525.00405,135.02647 525.6935,135.02647 C 526.38295,135.02647 526.94705,134.65147 526.94705,134.19314 C 526.94705,132.88923 527.66306,132.84533 559.99463,132.16719 L 590.54221,131.52647 L 592.99463,128.93297 C 594.34346,127.50654 600.39705,121.30115 606.44705,115.14322 L 617.44705,103.94697 L 606.44705,104.10731 C 599.60292,104.20707 593.59336,104.8627 590.5406,105.84267 C 584.81261,107.68141 578.10135,113.6706 575.13208,119.59337 C 572.44177,124.95973 570.13777,126.94016 568.88615,124.96217 C 567.5404,122.83542 567.70477,121.43909 570.52662,111.02647 C 571.94262,105.80147 573.25552,100.79153 573.44419,99.893272 C 574.76198,93.619265 582.15155,84.492695 588.56088,81.223256 C 592.55128,79.187724 594.22391,79.113595 644.31088,78.752464 C 672.71077,78.547698 695.94705,78.664517 695.94705,79.01206 C 695.94705,79.359604 680.75955,94.809233 662.19705,113.34457 L 628.44705,147.04518 L 644.44705,146.77224 C 659.28477,146.51913 660.84658,146.31082 665.94705,143.90454 C 672.11819,140.99315 676.72919,136.91594 680.36612,131.15468 C 683.1572,126.73331 687.7978,116.08668 688.26325,113.03679 C 688.68337,110.28388 690.48753,108.63616 692.31417,109.33711 C 693.78125,109.90008 693.82021,111.71903 692.49942,117.98644 C 692.2143,119.33942 691.71128,122.25491 691.3816,124.46531 C 691.05192,126.67571 690.61793,128.74998 690.41718,129.07479 C 690.21644,129.39961 689.75522,131.88412 689.39226,134.59592 C 689.02931,137.30772 688.56155,139.81146 688.3528,140.15978 C 688.14405,140.5081 687.70554,142.47762 687.37833,144.5365 C 686.29453,151.35605 686.02735,152.25983 683.87355,156.39199 C 681.30673,161.31653 678.23501,164.2941 672.63122,167.28973 C 668.48836,169.50438 667.96816,169.52937 619.94705,169.8203 C 593.27205,169.98191 566.94705,169.98191 561.44705,169.8203 L 551.44705,169.52647 L 564.44705,156.78998 L 577.44705,144.05349 L 569.14739,144.03998 C 558.71356,144.023 556.56509,145.10532 549.52995,153.92257 C 546.50915,157.70859 542.32972,162.21871 540.24232,163.94508 C 532.92236,169.99898 532.5909,170.02647 466.91477,170.02647 C 423.74378,170.02647 406.30563,169.70102 403.84627,168.84942 C 398.28094,166.92232 394.47237,161.97921 394.73692,157.02647 C 394.82835,155.31472 396.26956,148.40148 397.44705,144.02647 C 398.10934,141.56568 399.01649,137.69049 399.55387,135.02647 C 399.83123,133.65147 401.15816,128.16992 402.50261,122.84525 C 403.84705,117.52058 404.94705,112.10821 404.94705,110.81776 C 404.94705,104.81472 398.01421,101.38902 392.07795,104.45878 C 387.16156,107.00114 386.52048,108.44129 381.3642,128.52647 C 381.08181,129.62647 380.64742,131.31397 380.3989,132.27647 C 380.15038,133.23897 379.74096,134.96242 379.48908,136.10636 C 379.2372,137.25029 378.76829,139.01434 378.44705,140.02647 C 378.12581,141.0386 377.70406,142.6919 377.50983,143.70048 C 375.65856,153.31335 372.95993,159.27788 368.6332,163.31965 C 362.14352,169.38192 361.85393,169.42174 321.44593,169.80847 L 284.4448,170.16259 L 280.94593,167.8246 C 279.02154,166.5387 276.75907,164.11968 275.9182,162.449 L 274.38935,159.4114 L 271.58554,162.05774 C 270.04345,163.51323 266.25111,166.23912 263.15812,168.11528 C 257.89366,171.30861 256.88473,171.54803 247.36048,171.86405 C 236.28653,172.2315 234.05714,171.59015 228.29211,166.37855 C 222.56227,161.19875 220.51194,154.22916 222.15779,145.52647 C 222.90913,141.5536 225.04423,137.02647 226.16658,137.02647 C 226.66076,137.02647 226.84047,136.66304 226.56595,136.21885 C 226.29142,135.77466 227.23915,134.53716 228.67201,133.46885 C 230.10488,132.40054 231.84579,130.96397 232.5407,130.27647 C 233.23562,129.58897 234.28634,129.02647 234.87562,129.02647 C 235.46491,129.02647 235.94705,128.68668 235.94705,128.27138 C 235.94705,127.46625 246.21733,123.24475 249.90282,122.53499 C 251.11502,122.30154 252.85837,121.88429 253.77694,121.60777 C 254.6955,121.33125 256.57205,120.90819 257.94705,120.66763 C 270.10183,118.54117 276.59831,116.29258 281.59236,112.48343 C 288.27807,107.38399 289.89131,98.98225 284.44713,97.615846 C 281.37636,96.845134 277.67838,98.647109 272.39176,103.49026 C 266.83453,108.58132 261.01971,112.51407 257.04783,113.86786 C 255.07175,114.5414 247.43107,115.02647 238.79783,115.02647 C 225.35004,115.02647 223.93982,115.1918 223.87054,116.77647 C 223.82846,117.73897 223.65401,119.20147 223.48287,120.02647 C 223.31173,120.85147 222.92275,122.87647 222.61847,124.52647 C 222.31418,126.17647 221.79197,128.65147 221.45799,130.02647 C 221.12401,131.40147 220.68934,133.20147 220.49205,134.02647 C 218.23009,143.4853 212.00613,154.18373 204.49354,161.52647 C 196.04784,169.78124 192.27782,171.31991 179.44705,171.74883 C 169.38015,172.08536 168.00482,171.90601 163.23374,169.63451 z M 266.12032,153.10078 C 268.26291,152.8643 273.46819,146.93707 276.08399,141.7552 C 279.05,135.87956 279.52869,134.48708 280.5835,128.66657 L 281.10178,125.80667 L 277.77441,128.28153 C 275.94436,129.64271 271.20778,132.43569 267.24867,134.48817 C 259.48768,138.51163 256.53705,141.79584 256.43314,146.52647 C 256.35042,150.29234 260.09168,154.17651 263.23547,153.58864 C 264.45184,153.36119 265.75002,153.14165 266.12032,153.10078 z M 169.1654,145.78778 C 173.39212,141.3301 177.05512,134.23369 178.59146,127.52647 C 179.95627,121.56812 180.13889,120.06727 180.11244,115.02647 C 180.06716,106.39705 178.43325,102.43759 174.51133,101.45325 C 165.57625,99.210686 153.80871,120.13992 154.37284,137.27068 C 154.67211,146.35848 155.0836,147.90887 157.77466,150.08796 C 160.87651,152.59968 163.72666,151.52371 169.1654,145.78778 z M 521.49619,107.27647 C 522.81497,99.206393 522.71818,97.797604 520.70674,95.786162 C 519.18727,94.266693 517.98604,93.984177 515.23736,94.499831 C 509.32402,95.60918 506.12951,100.02569 504.54926,109.27647 L 504.07949,112.02647 L 512.39973,112.02647 L 520.71996,112.02647 L 521.49619,107.27647 z " id="path2330"/>
</svg>