<?xml version="1.0" standalone="no"?>
<!DOCTYPE svg PUBLIC "-//W3C//DTD SVG 20010904//EN"
 "http://www.w3.org/TR/2001/REC-SVG-20010904/DTD/svg10.dtd">
<svg version="1.0" xmlns="http://www.w3.org/2000/svg"
 width="665.000000pt" height="215.000000pt" viewBox="0 0 665.000000 215.000000"
 preserveAspectRatio="xMidYMid meet">

<g transform="translate(0.000000,215.000000) scale(0.100000,-0.100000)"
fill="#000000" stroke="none">
<path d="M2772 2136 c-205 -39 -461 -142 -516 -206 -29 -35 -31 -43 -16 -71
15 -27 29 -24 127 26 264 136 667 187 796 101 78 -53 69 -122 -29 -226 -77
-81 -182 -157 -361 -261 -149 -87 -183 -116 -183 -156 0 -16 27 -67 67 -127
37 -56 104 -171 148 -256 51 -98 87 -156 98 -158 24 -5 69 46 194 223 107 149
125 172 131 156 1 -5 -13 -70 -33 -145 -53 -205 -46 -264 27 -233 35 15 84 65
160 165 47 61 78 79 78 45 0 -10 9 -37 19 -60 57 -124 228 -92 471 87 52 39
97 70 101 70 4 0 -4 -26 -17 -57 -35 -87 -29 -123 22 -123 30 0 67 46 115 143
43 85 104 157 180 212 63 47 76 45 84 -9 7 -45 5 -60 -22 -182 -17 -77 -12
-124 13 -124 9 0 76 34 149 75 280 159 546 251 875 302 165 25 559 25 684 0
127 -26 235 -62 359 -119 103 -48 109 -49 132 -34 49 32 25 78 -70 131 -191
107 -498 164 -810 151 -351 -14 -760 -117 -1104 -276 -50 -24 -93 -41 -96 -39
-2 3 9 52 24 109 34 126 57 261 48 284 -12 31 -47 16 -152 -64 -58 -44 -107
-80 -110 -80 -15 0 7 51 115 270 66 133 120 250 120 259 0 24 -20 41 -46 41
-28 0 -43 -22 -123 -174 -131 -250 -256 -431 -381 -557 -155 -153 -402 -283
-455 -239 -40 33 -4 132 79 215 60 60 135 98 243 124 83 19 100 33 89 75 -10
41 -46 50 -132 32 -134 -27 -233 -90 -419 -268 -58 -55 -108 -98 -111 -95 -3
2 6 60 20 128 38 180 33 219 -24 219 -26 0 -48 -24 -205 -220 -97 -121 -180
-222 -185 -225 -4 -3 -12 1 -18 8 -20 24 -182 319 -182 330 1 7 78 66 172 132
278 194 398 331 398 454 0 29 -7 65 -15 80 -25 48 -94 100 -165 122 -84 27
-256 34 -358 15z"/>
<path d="M1825 2022 c-261 -91 -597 -621 -657 -1037 -21 -150 22 -305 107
-384 58 -53 99 -65 209 -58 152 9 333 67 585 188 78 38 141 63 138 56 -3 -6
-32 -78 -66 -158 -68 -164 -81 -208 -60 -210 37 -3 76 4 96 16 15 10 47 79
103 224 l83 209 116 55 c64 30 122 62 130 70 16 21 11 67 -11 80 -12 8 -34 3
-90 -22 -40 -18 -78 -35 -84 -37 -11 -5 44 158 185 551 78 217 90 265 67 284
-9 8 -26 11 -40 7 -34 -8 -56 -57 -231 -528 l-148 -396 -146 -70 c-369 -178
-582 -243 -715 -218 -44 8 -104 59 -122 103 -35 83 -4 266 82 481 81 204 161
347 279 498 150 192 251 258 316 205 21 -17 24 -28 23 -83 0 -34 -4 -93 -8
-130 l-9 -67 28 -7 c21 -5 32 -1 53 20 25 24 27 34 30 127 4 92 2 104 -23 156
-43 87 -115 111 -220 75z"/>
<path d="M845 1924 c-176 -32 -473 -121 -526 -157 -29 -19 -34 -28 -34 -62 0
-36 3 -40 26 -43 15 -2 85 19 156 47 279 108 518 139 590 77 60 -52 9 -123
-250 -352 -185 -163 -216 -199 -197 -234 16 -30 53 -24 102 16 91 77 179 96
218 47 27 -35 23 -70 -19 -160 -66 -140 -219 -351 -485 -668 -96 -116 -176
-217 -176 -226 0 -42 45 -50 92 -16 83 60 539 633 648 813 46 77 79 177 80
241 0 64 -29 103 -95 129 l-45 17 59 54 c111 100 198 234 207 321 15 128 -139
196 -351 156z"/>
<path d="M3397 1714 c-14 -14 -31 -41 -37 -60 -31 -93 101 -123 153 -35 29 49
22 88 -20 110 -35 18 -68 13 -96 -15z"/>
<path d="M586 1688 c-20 -12 -67 -109 -162 -337 -96 -230 -142 -361 -268 -772
-154 -505 -158 -516 -154 -547 3 -31 33 -41 60 -20 10 8 105 275 237 668 120
360 244 724 275 809 31 84 56 164 56 176 0 27 -19 37 -44 23z"/>
<path d="M6100 1283 c-85 -31 -79 -155 8 -176 52 -12 112 35 112 88 0 32 -30
73 -61 84 -35 12 -37 12 -59 4z m77 -35 c30 -28 30 -74 1 -105 -45 -48 -122
-16 -122 52 0 67 72 99 121 53z"/>
<path d="M6090 1195 c0 -30 5 -55 10 -55 6 0 10 11 10 25 0 14 4 25 8 25 5 0
15 -11 22 -25 7 -14 17 -25 22 -25 5 0 4 9 -2 20 -8 14 -7 25 2 39 16 26 -5
51 -43 51 -28 0 -29 -1 -29 -55z m58 23 c-7 -19 -38 -22 -38 -4 0 10 9 16 21
16 12 0 19 -5 17 -12z"/>
<path d="M1430 993 c-59 -73 -75 -197 -29 -226 40 -25 115 72 125 159 12 104
-37 138 -96 67z"/>
<path d="M926 807 c-38 -49 -56 -100 -56 -156 0 -47 17 -81 40 -81 19 0 67 51
88 93 21 43 30 125 16 161 -11 29 -60 19 -88 -17z"/>
<path d="M3314 611 c-103 -26 -154 -102 -154 -230 0 -81 27 -140 83 -185 39
-31 40 -31 160 -31 67 0 130 3 140 7 15 6 17 22 17 118 l0 110 -90 0 -90 0 0
-35 c0 -35 0 -35 45 -35 l45 0 0 -49 0 -49 -47 -4 c-109 -10 -156 32 -161 146
-6 104 28 161 99 172 48 8 89 -11 102 -46 10 -28 15 -30 59 -30 54 0 58 7 33
66 -10 25 -26 40 -57 54 -50 22 -140 32 -184 21z"/>
<path d="M5596 606 c-66 -18 -107 -61 -113 -118 -8 -74 39 -114 174 -148 92
-23 89 -105 -3 -111 -48 -4 -72 10 -86 47 -11 32 -15 34 -55 34 -40 0 -43 -2
-43 -27 0 -40 20 -74 59 -100 27 -18 48 -23 102 -23 125 0 191 47 193 137 1
38 -4 49 -31 73 -18 16 -58 37 -90 45 -32 9 -70 21 -86 27 -52 20 -44 90 11
103 40 8 80 -9 88 -40 5 -22 11 -25 50 -25 38 0 44 3 44 20 0 84 -104 136
-214 106z"/>
<path d="M3653 595 c-3 -9 -4 -82 -1 -163 3 -124 7 -154 24 -187 29 -55 88
-85 168 -85 86 0 143 30 174 90 20 40 22 58 22 203 l0 158 -47 -3 -48 -3 -5
-167 c-5 -152 -7 -169 -26 -188 -21 -21 -72 -29 -112 -16 -43 14 -52 52 -52
221 l0 155 -45 0 c-32 0 -47 -5 -52 -15z"/>
<path d="M4120 390 l0 -220 50 0 50 0 0 220 0 220 -50 0 -50 0 0 -220z"/>
<path d="M4262 573 l3 -38 63 -3 62 -3 0 -179 0 -180 50 0 50 0 0 180 0 180
65 0 65 0 0 40 0 40 -181 0 -180 0 3 -37z"/>
<path d="M4687 398 c-42 -117 -77 -216 -77 -220 0 -5 19 -8 43 -8 41 0 43 1
57 43 l15 42 89 0 89 0 15 -42 c14 -43 14 -43 62 -43 l48 0 -55 158 c-31 86
-65 185 -76 220 l-21 62 -56 0 -56 0 -77 -212z m166 15 l25 -83 -63 0 -64 0
31 91 c17 50 34 87 38 82 4 -4 19 -45 33 -90z"/>
<path d="M5078 604 c-5 -4 -8 -103 -8 -221 l0 -213 50 0 50 0 0 85 0 85 60 0
c70 0 74 -5 85 -102 l7 -68 49 0 c55 0 53 -6 35 98 -13 73 -36 112 -65 112
-10 0 -4 7 14 18 45 28 58 48 58 90 0 90 -43 115 -208 120 -66 2 -123 0 -127
-4z m220 -86 c7 -7 12 -26 12 -43 0 -44 -16 -55 -82 -55 l-58 0 0 55 0 55 58
0 c32 0 63 -5 70 -12z"/>
</g>
</svg>
