<?xml version="1.0" encoding="utf-8"?>
<!-- Generator: Adobe Illustrator 19.2.1, SVG Export Plug-In . SVG Version: 6.00 Build 0)  -->
<svg version="1.1" id="layer" xmlns="http://www.w3.org/2000/svg" xmlns:xlink="http://www.w3.org/1999/xlink" x="0px" y="0px"
	 viewBox="0 0 652 652" style="enable-background:new 0 0 652 652;" xml:space="preserve">
<style type="text/css">
	.st0{fill:#151616;}
	.st1{fill:#B6B7B7;}
	.st2{fill:#EF7622;}
	.st3{fill-rule:evenodd;clip-rule:evenodd;fill:#B6B7B7;}
</style>
<path class="st0" d="M218,305.1h5.6l9.9,19.7c1.6,3,2.7,6.3,3.5,8.8h0.1c-0.3-2.3-0.6-6.4-0.6-10.1v-18.4h5.3v36.2h-6l-9.2-18.4
	c-2.2-4.5-3-7-3.8-9.6h-0.1c0.2,2.3,0.6,6.5,0.6,10.7v17.3H218V305.1"/>
<polyline class="st0" points="251.5,305.1 271.1,305.1 271.1,310 257.2,310 257.2,320 268.7,320 268.7,324.8 257.2,324.8 
	257.2,336.4 272,336.4 272,341.3 251.5,341.3 251.5,305.1 "/>
<path class="st0" d="M279.5,330.5v-25.4h5.6v25c0,4.7,1.2,7.1,5.4,7.1c3.5,0,6.1-1.7,7.5-3.1v-29h5.6v36.2h-4.1l-0.9-3.2
	c-2.1,2.1-4.9,4-8.9,4C284.3,342.1,279.5,339,279.5,330.5"/>
<path class="st0" d="M313.4,305.1h8.4l5.8,19.5c0.9,2.9,1.2,5.2,1.4,7.2h0.1c0.2-2,0.3-4.3,1.2-7.2l5.7-19.5h8.6v36.2h-5.6v-20.8
	c0-4.4,0.4-10,0.4-11.4H339c-0.3,1.5-1.4,6.7-2.8,11.1l-4.7,14.9h-5.7l-4.7-14.6c-1.3-4.1-2.5-10.2-2.7-11.5h-0.1
	c0,1.6,0.3,7.4,0.3,12v20.3h-5.2V305.1"/>
<path class="st0" d="M362.1,305.1h6.1l10.8,36.2h-6.2l-2.5-9.3h-11l-2.6,9.3h-5.9L362.1,305.1 M360.6,327.5h8.5l-1.9-7.1
	c-1.4-5-1.7-7.6-2.1-10h-0.1c-0.5,2.6-0.9,5-2.3,10L360.6,327.5z"/>
<path class="st0" d="M385.4,305.1h5.6l9.9,19.7c1.6,3,2.7,6.3,3.5,8.8h0.1c-0.3-2.3-0.6-6.4-0.6-10.1v-18.4h5.3v36.2h-6l-9.2-18.4
	c-2.2-4.5-3-7-3.8-9.6h-0.1c0.2,2.3,0.6,6.5,0.6,10.7v17.3h-5.3V305.1"/>
<path class="st0" d="M418.9,305.1h5.6l9.9,19.7c1.6,3,2.7,6.3,3.5,8.8h0.1c-0.3-2.3-0.6-6.4-0.6-10.1v-18.4h5.3v36.2h-5.9l-9.2-18.4
	c-2.2-4.5-3-7-3.8-9.6h-0.1c0.2,2.3,0.6,6.5,0.6,10.7v17.3h-5.3V305.1"/>
<path class="st0" d="M450.5,337.4c0-2.5,1.9-4.5,4.4-4.5c2.5,0,4.4,1.9,4.4,4.5c0,2.5-1.9,4.5-4.4,4.5
	C452.4,341.9,450.5,339.9,450.5,337.4"/>
<path class="st1" d="M466.6,305.1h11.6c6.9,0,10,3.6,10,9.5c0,3.8-1.1,6.1-4.7,7.6c3.7,1,6.3,3.5,6.3,8.8c0,7.2-4.3,10.3-11.3,10.3
	h-11.9V305.1 M477.8,320.1c3.8,0,4.7-1.7,4.7-5.2c0-3.5-1-5.2-4.8-5.2h-5.4v10.3H477.8z M477.8,336.6c4.5,0,6-1.7,6-5.8
	c0-4-1.7-5.8-6.2-5.8h-5.2v11.6H477.8z"/>
<polyline class="st1" points="497.4,305.1 516.9,305.1 516.9,310 503.1,310 503.1,320 514.6,320 514.6,324.8 503.1,324.8 
	503.1,336.4 517.9,336.4 517.9,341.3 497.4,341.3 497.4,305.1 "/>
<path class="st1" d="M525.5,305.1h10.9c7.6,0,11.6,3.4,11.6,10.1c0,5.6-2.1,8.1-6.8,9.5c2.1,0.7,3.6,2.6,4.9,6.3l3.6,10.2h-6.1
	l-3.4-10.2c-1.4-4.1-3-5-6-5h-3v15.3h-5.7V305.1 M536.4,321.5c4.4,0,5.8-1.9,5.8-6.1c0-3.9-1.5-5.5-5.8-5.5h-5.2v11.6H536.4z"/>
<polyline class="st1" points="556.3,305.1 562,305.1 562,336.4 574.7,336.4 574.7,341.3 556.3,341.3 556.3,305.1 "/>
<polyline class="st1" points="580.6,338.2 584.7,337.6 584.7,308.9 580.6,308.2 580.6,305.1 594.5,305.1 594.5,308.2 590.4,308.9 
	590.4,337.6 594.5,338.2 594.5,341.3 580.6,341.3 580.6,338.2 "/>
<path class="st1" d="M602.7,305.1h5.6l9.9,19.7c1.6,3,2.7,6.3,3.5,8.8h0.1c-0.3-2.3-0.6-6.4-0.6-10.1v-18.4h5.3v36.2h-6l-9.2-18.4
	c-2.2-4.5-3-7-3.8-9.6h-0.1c0.2,2.3,0.6,6.5,0.6,10.7v17.3h-5.3V305.1"/>
<polyline class="st2" points="176.1,313.4 176.1,338.3 187.4,325.8 176.1,313.4 "/>
<polyline class="st2" points="191.5,313.4 191.5,338.3 202.8,325.8 191.5,313.4 "/>
<path class="st3" d="M99.1,328.9l0-23.2l0-25.3H86.3v34l-1.6-1.9v-33.6h15.9v51.9L99.1,328.9 M86.3,324.6V373h12.8v-33.7l1.5,1.8
	v33.6H84.7v-51.8L86.3,324.6z M92.7,387.1l-60.4-60.3l60.4-60.3l60.3,60.3L92.7,387.1z M92.7,392.9l-66.2-66.1l66.1-66.2l66.1,66.1
	L92.7,392.9z M86.3,321.9l-3.7-4.2v37.5c-11.6-4.2-20.1-15.4-20.1-28.4c0-6.5,2.1-12.6,5.6-17.5c3.6-5,8.6-8.8,14.4-10.9v1.9
	c-10.7,4.1-18.4,14.5-18.4,26.5c0,11,6.3,20.7,15.6,25.3v-1.8c-8.3-4.6-14-13.5-14-23.6c0-11.3,7-21,16.8-24.9v1.9
	c-8.8,3.9-15.1,12.7-15.1,23c0,9.1,4.8,17.3,12.3,21.7v-1.9c-6.4-4.2-10.6-11.6-10.6-19.7c0-9.3,5.6-17.6,13.4-21.4v2
	c-7,3.8-11.8,10.9-11.8,19.3c0,7.2,3.4,13.8,9,17.7v-32.8l1-0.7l5.4,6.2V321.9z M99.1,331.6l3.6,4.1v-37.4
	c11.7,4.2,20.1,15.4,20.1,28.4c0,6.5-2.1,12.6-5.6,17.5c-3.6,5-8.6,8.8-14.4,10.9v-1.9c10.7-4.1,18.3-14.5,18.3-26.5
	c0-11.1-6.3-20.7-15.6-25.4v1.8c8.3,4.6,14.1,13.5,14.1,23.6c0,11.2-7,21-16.8,24.9v-1.9c8.8-3.9,15.1-12.7,15.1-22.9
	c0-9.2-4.8-17.3-12.3-21.7v1.9c6.4,4.2,10.6,11.6,10.6,19.8c0,9.3-5.5,17.6-13.4,21.3v-2c7-3.8,11.8-10.9,11.8-19.3
	c0-7.3-3.4-13.9-9-17.8v32.9l-1,0.7l-5.3-6.2V331.6z M88.2,359.8H90l5.4,8.3v-8.3h1.8v11.4h-1.8L90,363v8.2h-1.8V359.8z M88.2,346.9
	H90l5.4,8.3v-8.3h1.8v11.4h-1.8l-5.4-8.2v8.2h-1.8V346.9z M91.8,333.9h1.9l3.5,11.4h-1.9l-0.5-1.8h-4.2l-0.6,1.8h-1.8L91.8,333.9z
	 M92.7,336.9l-1.6,4.9h3.1L92.7,336.9z M88.2,332.4V321h1.2l3.3,3.9L96,321h1.2v11.3h-1.8v-7.9l-2.6,3.2l-2.8-3.2v7.9H88.2z
	 M88.2,315.3v-7.2H90v7c0,1.9,1.5,2.7,2.7,2.7c1.3,0,2.7-0.7,2.7-2.7v-7h1.8v7.2c0,2.5-1.9,4.4-4.5,4.4
	C90.1,319.7,88.2,317.9,88.2,315.3z M88.2,282.2H90l5.4,8.3v-8.3h1.8v11.4h-1.8l-5.4-8.2v8.2h-1.8V282.2z M88.2,295.2h9v1.8H90v3.1
	h7.2v1.8H90v2.9h7.2v1.8h-9V295.2z"/>
</svg>
