<?xml version="1.0" encoding="utf-8"?>
<!-- Generator: Adobe Illustrator 19.2.1, SVG Export Plug-In . SVG Version: 6.00 Build 0)  -->
<svg version="1.1" id="layer" xmlns="http://www.w3.org/2000/svg" xmlns:xlink="http://www.w3.org/1999/xlink" x="0px" y="0px"
	 viewBox="0 0 652 652" style="enable-background:new 0 0 652 652;" xml:space="preserve">
<style type="text/css">
	.st0{fill:#231815;}
	.st1{fill:none;stroke:#231815;stroke-width:0.2389;}
	.st2{fill:#D9B766;}
</style>
<path class="st0" d="M435,361.8V359c0.1,0,0.2,0,0.3,0c3.3,0,6-1.6,8-4.7c1.8-2.7,2.8-5.7,2.8-8.9c0-3.2-0.9-6.1-2.8-8.6
	c-2-2.9-4.7-4.3-8.1-4.3c-0.1,0-0.1,0-0.2,0v-2.6c0.2,0,0.4,0,0.6,0c4.6,0,8.8,1.6,12.3,4.7c3.5,3.1,5.3,6.9,5.3,11.2
	c0,4.6-1.7,8.4-5.1,11.4c-3.4,3-7.5,4.5-12.4,4.5C435.4,361.8,435.2,361.8,435,361.8 M509.6,361.9h-4.7l-19.7-22.2v22.2h-3.9v-32h5
	l19.4,22.1v-22l4-0.1V361.9z M555.4,361.9h-17.6v-32h17.6v4.3l-10.6-0.1v8.9h10.6v4.2h-10.6l-0.1,10.4l10.6-0.1V361.9z M603.6,351.1
	c0.8,3.7-0.4,6.2-2.4,8.4c-2,2.1-4.9,2.9-8.1,2.3c-1.8-0.4-3.3-0.8-4.6-1.5l-2.3-0.8l-2.2-1.1l1.5-6.1c0.2-0.1,0.4-0.1,0.6,0.2
	c0.5,1.6,1.8,4,3.1,4.9c1.4,1,2.3,1.4,4,1.4c1.4,0,2.4-0.2,3.7-1c1.2-0.8,1.6-2.1,1.6-3.4c0.1-1.4-1.3-2.6-3.8-3.9
	c-4.1-2-6.3-3.5-6.9-4c-2.4-1.9-3.5-4.4-3.5-6.9c0-3,1.2-5.5,3.4-7.4c1.3-1.1,2.5-1.9,4-2.2c1.1-0.1,2.3-0.2,3.6-0.1
	c1.5,0.2,2.4,0.5,3.7,1.1c0.8,0.3,1.6,0.8,2.4,1.4c0.5,0.4,0.9,0.8,1.5,1.1l-1,4l-0.5-0.5c-1.9-2.7-3.3-4-6.2-4.4
	c-1.3-0.1-3.1,0.2-4,1c-1.1,0.8-1.6,2-1.7,3.1c-0.2,2,0.9,3.9,3.5,5.3c2.3,1.2,5.3,2.6,7.3,4.2C602.5,348,603.1,349.1,603.6,351.1z
	 M435,329.9v2.6c-3.4,0-6.3,1.4-8.3,4c-1.9,2.4-2.8,5.4-2.8,8.9c0,3.6,0.9,6.6,2.8,9.2c2.1,2.8,4.8,4.3,8.3,4.4v2.8
	c-4.7-0.1-8.9-1.7-12.4-4.7c-3.6-3-5.4-6.9-5.4-11.3c0-4.2,1.9-7.9,5.7-11.2C426.4,331.6,430.5,330,435,329.9z M322.2,347.4v-3.8
	c0.6-0.2,1.1-0.5,1.7-0.9c1.1-0.8,1.7-1.7,1.9-3.1c0.1-0.2,0.1-0.6,0.1-0.9c0.2-1.5-0.5-2.9-1.4-3.9c-0.6-0.7-1.5-1.1-2.4-1.4V330
	h0.5c1.7,0,3.7,0.3,5.2,1.1c0.6,0.3,1.2,0.8,1.7,1.1c2.3,2.2,2.8,3.3,2.8,5.7c-0.1,1.5-0.1,2.7-0.6,3.7c-0.3,0.8-0.7,1.7-1.5,2.4
	c-1.4,1.1-2.2,1.9-3.6,2.4c-0.6,0.2-1.4,0.5-2.3,0.7L322.2,347.4z M388.7,361.9l-7.2,0.1l-0.1-15.1h-13.7v15l-7.2,0.1v-32h7.2v12.7
	l13.7,0.1l0.1-12.7h7.1L388.7,361.9z M322.2,330v3.4c-0.5-0.1-1.2-0.2-1.7-0.2c-0.3,0-0.7,0-1,0c-0.4,0-0.7,0-1.1,0.1v10.6
	c0.2,0,0.5,0,0.7,0.1c0.2,0,0.5,0,0.7,0c0.9,0,1.7-0.2,2.4-0.4v3.8l-1,0.1l-2.8,0.1l-0.1,14.2h-6.9V330H322.2z M265.1,361.8v-2.4
	c0.1,0,0.2,0,0.3,0c3.2,0,6-1.6,8-4.7c1.8-2.7,2.7-5.7,2.7-9.1c0-3.3-0.8-6.2-2.7-8.7c-2.1-2.9-4.8-4.4-8.2-4.4c-0.1,0-0.1,0-0.2,0
	V330c0.2,0,0.3,0,0.5,0c4.6,0,8.7,1.5,12.3,4.7c3.5,3.2,5.3,6.9,5.3,11.2c0,4.6-2,8.3-5.3,11.3c-3.4,3.1-7.3,4.6-12.2,4.6
	C265.5,361.8,265.3,361.8,265.1,361.8z M265.1,330v2.4c-3.4,0.1-6.2,1.5-8.2,4.2c-1.9,2.4-2.8,5.5-2.8,8.9c0,3.7,0.9,6.8,2.8,9.4
	c2.1,2.8,4.8,4.3,8.2,4.4v2.4c-4.8-0.1-9-1.6-12.5-4.6c-3.7-3.1-5.4-6.9-5.4-11.3c0-4.2,1.5-8.1,5.3-11.3
	C256.1,331.5,260.6,330.1,265.1,330z M205.5,353.5v-9.8c0.5-0.1,1-0.4,1.5-0.8c0.8-0.8,1.5-1.5,1.8-2.4c0.2-0.5,0.5-0.8,0.5-1.5
	c0-1.2-0.1-2.5-0.8-3.7c-0.2-0.5-0.6-0.8-0.9-1.2c-0.4-0.5-1.6-0.9-2.1-0.9h-0.1v-3.4c0.4,0,0.7,0,1,0c0.8,0,3.5,0.5,4.3,1.1
	c0.8,0.6,2,1.1,2.9,2.2c1.5,1.7,1.9,2.8,1.9,4.9c0,1.6,0,2.3-0.3,3.2c-0.1,0.4-0.5,1.2-1,1.6c-0.5,0.5-0.9,0.9-1.4,1.4
	c-1.1,0.6-2.2,1.2-3.2,1.7l9.2,15.8l-8.8,0.1L205.5,353.5z M75.2,361.9h-8l-4.4-19.7l-8,19.7h-1.7l-8.3-20.4l-4.3,20.4h-4.4l6.9-32
	l4.3,0.1l8.3,20.1l8.3-20.1h4.2L75.2,361.9z M205.5,329.9v3.4h-3.7v10.7c0.2,0,0.5,0,0.8,0c0.5,0,0.8,0,0.9,0c0.9,0,1.4-0.1,1.9-0.2
	c0.1,0,0.1,0,0.1,0v9.8l-3.7-6.8l-0.1,15.2h-7l0.1-32C198.3,329.9,201.9,329.9,205.5,329.9z M110.4,361.9h-7v-32h7V361.9z
	 M166.4,332.5l-1.5,5l-0.1-0.1c-0.7-1.5-1.3-2.7-2.6-3.4c-1.3-0.8-2.8-1.3-4.4-1.3c-3.4,0-6.1,1.5-8.3,4c-0.8,1-1.4,2.1-2,3.4
	c-0.9,2.1-1.3,4.1-1.3,6.2c0,3.7,1.5,6.7,3.7,9.2c2.3,2.5,5.3,3.6,8.5,3.6c1.4,0,2.5-0.5,3.9-1.2c1.5-0.6,2.3-1.7,3.4-2.7l0.2,0.2
	l-1.3,4.7c-1.4,0.6-2.2,0.9-3.8,1.1c-1.5,0.3-2.8,0.5-4.6,0.5c-5,0-8.3-1.5-11.5-4.1c-3.7-3-6-6.4-6-11.8c0-5.5,2.3-8.9,6.1-12.1
	c3.4-2.8,7.1-3.7,12.4-3.7c1.8,0,3.6,0.3,5.3,0.8C164,331.1,164.7,331.5,166.4,332.5z"/>
<path class="st0" d="M98.2,283.9l16.5,32h51.1l-35.3-60.2l4-1.1l6.9-2.4l4.3-2.7l4.3-3.4l4.6-4.7l3.4-4.8l2.1-3.9l1.6-3.8l1.2-4.1
	l1-5.2v-4.8l0.1-3.7l-0.4-4.4l-1.1-4.7l-1.5-4.4l-1.7-3.5l-2.2-4l-3.2-4.1l-3.6-4l-4-3.2l-3.8-2.5l-4.1-2.2l-4.7-2.2l-5-1.7
	l-5.1-1.6l-4.6-1.1l-3.7-0.8l-4.1-0.2l-6-0.3h-6.9v28.9l0.7,0.2l2.8,1.4l2.3,1.6l2.8,2.4l2.5,3.1l1.9,2.6l1.5,3.9l0.2,3.7l0.3,3
	l-0.5,2.9l-1.3,3.7l-1.9,2.9l-2.1,2.7l-3,2.7l-2.2,1.6l-4.1,2.1l-0.1,0.1V283.9 M36.2,316h46L82,252.5l16.2,31.4v-48.6l-3.9,1.3
	l-4.6,0.5l-3.7,0.2l-2.8-0.2l-0.2-44.3h7.1l2.9,0.4l2.8,0.8l2.3,0.9V166H36.3L36.2,316z"/>
<path class="st0" d="M308.6,186l18.8-17.4l8.7,9l-18.7,17.9l4.8,7.2l5.2,11l2.7,8.5l2.2,10.3l0.4,10l-0.7,8.1l-1.9,9.5l-2.9,8.4
	l-3.6,7.8l-3.8,6.4l-3.3,5.3l-4.8,5l-5.3,4.5L301,302l-5.7,4l-6.4,3.1l-7.2,2.9l-6.4,2.1l-7.2,1.2l-9.3,0.9l-4.3-0.1v-21.5l5,0.2
	l5-1.7l4.5-2.7l3.6-3.3l2.9-4l3.1-5.1l2.1-4.8l2.1-5.2l1.9-6.5l0.9-5.7l1-6.9l0.2-5.7l-0.2-6l-0.2-5.7l-1-6.2l-31,28.6v-17.6
	l27.2-25.1l-1.5-3.8l-1.6-3.3l-2.7-5l-3.1-3.4l-3.4-3.3l-3.1-2.4l-4-1.6l-4.5-0.8l-3.4,0.2v-21.7l3.4-0.1l8.3,0.5l7.4,1.2l7.6,2.1
	l6.9,2.8l6,2.7l5.5,3.8l5.2,3.6L308.6,186 M254.5,316.1l-2.9-0.1l-6.2-1l-6-1.1l-5.7-1.7l-6.2-2.4l-5.7-2.9l-5.7-3.4l-4.8-3.8
	l-3.4-2.2L188.9,315l-8.3-9.2l18.6-17.7l-3.6-4.5l-3.1-4.8l-3.4-6.4l-1.7-5l-2.4-6.4l-1.7-6.9l-0.7-6.9l-0.5-6.9l0.5-6.9l0.9-5.7
	l1-5l1.2-4.6l1.1-3.8l2.4-4.5l2.2-4.6l2.4-3.8l3.1-4.7l3.1-4.3l4-4.4l4.8-4.3l4.5-3.6l5.5-3.4l6.9-4l6.4-2.4l6.2-1.9l5.3-1.2
	l6.2-0.7l4.6-0.3v21.7h-1l-5,1.7l-3.4,2.4l-4,3.6l-2.9,4l-2.6,3.8l-2.2,4.8l-2.1,5l-1.7,6.6l-1.5,6.9l-0.7,6.4l-0.3,5.7v6l0.3,4.1
	l0.7,5.7l0.7,5.2l25.6-23.5V254l-21.2,19.6l1.9,3.8l2.6,4.7l2.8,3.3l3.1,3.6l2.9,2.4l3.6,1.9l4,1.2h0.2V316.1z"/>
<polygon class="st1" points="285.5,225.4 286.5,231.5 286.7,237.3 287,243.3 286.7,249 285.7,255.9 284.8,261.6 282.9,268.1 
	280.8,273.3 278.6,278.1 275.5,283.1 272.6,287.2 269,290.4 264.5,293.1 259.5,294.8 254.3,294.6 250.3,293.3 246.7,291.4 
	243.8,289.1 240.7,285.5 237.8,282.1 235.2,277.4 233.3,273.6 "/>
<polygon class="st1" points="281.7,211.3 229,259.9 228.3,254.7 227.6,249 227.3,244.9 227.3,238.9 227.6,233.2 228.3,226.8 
	229.7,219.9 231.4,213.2 233.5,208.2 235.7,203.4 238.3,199.6 241.2,195.5 245.2,191.9 248.6,189.6 253.5,187.9 257.9,187.7 
	262.4,188.4 266.4,190 269.6,192.5 272.9,195.8 276,199.1 278.6,204.2 280.2,207.5 "/>
<polygon class="st1" points="308.6,186 327.5,168.6 336.2,177.6 317.5,195.5 322.3,202.7 327.5,213.7 330.2,222.2 332.3,232.5 
	332.7,242.5 332.1,250.6 330.2,260.2 327.3,268.5 323.7,276.4 319.8,282.8 316.6,288.1 311.8,293.1 306.5,297.6 301,302 295.3,306 
	288.9,309.1 281.7,312 275.3,314.1 268.1,315.3 258.8,316.2 251.6,316 245.5,315 239.5,313.9 233.8,312.2 227.6,309.8 221.9,306.9 
	216.2,303.6 211.4,299.8 208,297.6 188.9,315 180.6,305.8 199.2,288.1 195.6,283.6 192.5,278.8 189.2,272.4 187.5,267.3 
	185.1,260.9 183.4,254 182.8,247.1 182.3,240.2 182.8,233.2 183.7,227.5 184.7,222.6 185.9,218 187,214.2 189.4,209.7 191.6,205.1 
	194,201.3 197,196.5 200.1,192.2 204.2,187.9 209,183.6 213.5,180 219,176.7 225.9,172.6 232.3,170.3 238.5,168.4 243.8,167.2 
	250,166.5 257.9,166 266.2,166.5 273.6,167.7 281.3,169.8 288.2,172.6 294.1,175.3 299.6,179.1 304.8,182.7 "/>
<path class="st0" d="M420.3,166.2l2.5,0.1l7.7,1.1l6,1.5l5.6,2.1l6,2.4l7.9,4.6l6.5,5l5.4,4.8l6,6.5l4,5.4l3.4,5.8l3.1,6.7l2.5,7
	l1.2,5l1.2,6.6l0.2,6.5l0.2,6.3l-0.5,4.6l-0.6,6.9l-1,5.7l-1.7,6l-1.9,5.4l-2.1,5.9l-3.1,6.2l-3.3,5l-3.5,4.6l-4.2,5l-4.8,4.2
	l-4.4,3.5l-4.2,2.7l-6,2.7l-5.6,2.2l-5,1.5L432,316l-11.7,0.1v-29.1l2.8-1.4l4-2.9l3.7-4l3.4-3.7l2.4-3.6l1.9-4.6l1.9-5.2l1.6-5.2
	l0.7-5.3l0.4-4.9l0.2-4.8v-4.6l-0.5-5.9l-1-5.2l-1.3-4.4l-1.7-5.3l-1.8-4.4l-2.5-3.7l-3.4-4.6l-4-4l-3.7-2.9l-3.1-1.4V166.2
	 M351.2,165.9h63.7l5.4,0.3v29l-0.8-0.3l-4-1.5l-4.7-0.7h-13.2l-0.1,96.8l7.7,0.2l7.1-0.5l5.8-1.2l2.3-1.1v29.1l-69.1,0.2V165.9z"/>
<polygon class="st1" points="397.6,192.8 410.8,192.8 415.5,193.5 419.5,194.9 423.5,196.6 427.2,199.5 431.2,203.5 434.5,208.1 
	437,211.8 438.9,216.1 440.5,221.4 441.9,225.8 442.8,230.9 443.3,236.8 443.3,241.4 443.1,246.2 442.7,251.2 442,256.4 
	440.4,261.6 438.5,266.8 436.6,271.4 434.2,275 430.8,278.7 427.1,282.7 423.1,285.6 418.1,288.1 412.2,289.3 405.2,289.8 
	397.5,289.5 "/>
<polygon class="st1" points="351.2,165.9 414.9,165.9 422.9,166.3 430.6,167.4 436.6,168.9 442.2,171 448.3,173.4 456.2,178 
	462.7,183 468.1,187.9 474.1,194.3 478.1,199.7 481.5,205.6 484.6,212.3 487.1,219.3 488.3,224.3 489.5,230.9 489.8,237.4 
	490,243.7 489.5,248.3 488.9,255.1 487.9,260.8 486.3,266.8 484.4,272.2 482.3,278.1 479.2,284.4 475.8,289.3 472.3,294 
	468.1,298.9 463.3,303.1 458.9,306.6 454.8,309.4 448.7,312 443.1,314.2 438.1,315.7 432,316 351.2,316.3 "/>
<polyline class="st0" points="508.6,165.9 604.7,165.9 604.7,192.8 555.1,192.9 555.1,227.5 600.8,227.3 601,254.4 555.1,254.4 
	555.1,289.2 604.7,289.2 604.8,316 508.6,316 508.6,165.9 "/>
<polygon class="st1" points="508.6,165.9 604.7,165.9 604.7,192.8 555.1,192.9 555.1,227.5 600.8,227.3 601,254.4 555.1,254.4 
	555.1,289.2 604.7,289.2 604.8,316 508.6,316 "/>
<path class="st0" d="M623.1,166.7c0.8,0.1,1.5,0.1,1.8,0.2c0.6,0.1,1.1,0.3,1.5,0.6c0.6,0.3,0.9,0.8,1.2,1.5
	c0.3,0.6,0.5,1.3,0.5,2.1c0,1.3-0.5,2.3-1.2,3c-0.8,0.7-2.1,1-3.7,1h-0.1v-1.5c1-0.1,1.7-0.2,2.1-0.5c0.5-0.4,0.8-1,0.8-2
	c0-1-0.3-1.7-0.8-2.1c-0.5-0.3-1.1-0.5-2.1-0.5V166.7 M623.1,175.2l6.6,7.3h-2.7l-4-4.5V175.2z M618.2,182.6v-15.9h4.2
	c0.2,0,0.5,0,0.8,0v1.7c-0.4-0.1-0.8-0.1-1.3-0.1h-1.6v5.3h1.6c0.5,0,0.9,0,1.3-0.1v1.5h-0.2l0.2,0.2v2.8l-2.6-3h-0.3v7.6H618.2z"/>
<path class="st0" d="M623.1,164.2c5.8,0,10.5,4.7,10.5,10.5c0,5.8-4.6,10.5-10.5,10.5v2.7c7.2,0,13-5.9,13-13.1c0-7.2-5.9-13-13-13
	V164.2 M623.1,185.2c-5.8,0-10.5-4.7-10.5-10.5c0-5.8,4.7-10.5,10.5-10.5v-2.4h-0.1c-7.2,0-13,5.9-13,13c0,7.3,5.9,13.1,13,13.1h0.1
	V185.2z"/>
<path class="st2" d="M320.3,482.3c29.7,0,53.8-24.2,53.8-53.9c0-29.8-24.1-53.9-53.8-53.9c-29.7,0-53.9,24.1-53.9,53.9
	C266.4,458.1,290.6,482.3,320.3,482.3"/>
</svg>
