<svg width="30" height="30" viewBox="0 0 30 30" fill="none" xmlns="http://www.w3.org/2000/svg">
<path d="M12.6 1.8C6.97268 1.8 2.40002 6.37266 2.40002 12C2.40002 17.6273 6.97268 22.2 12.6 22.2C14.8266 22.2 16.8844 21.4828 18.5625 20.2688L26.4563 28.1438L28.1438 26.4563L20.3438 18.6375C21.8766 16.8516 22.8 14.5336 22.8 12C22.8 6.37266 18.2274 1.8 12.6 1.8ZM12.6 3C17.5781 3 21.6 7.02188 21.6 12C21.6 16.9781 17.5781 21 12.6 21C7.6219 21 3.60002 16.9781 3.60002 12C3.60002 7.02188 7.6219 3 12.6 3Z" fill="black"/>
</svg>
