<?xml version="1.0" encoding="UTF-8" standalone="no"?>
<svg
   xmlns:dc="http://purl.org/dc/elements/1.1/"
   xmlns:cc="http://creativecommons.org/ns#"
   xmlns:rdf="http://www.w3.org/1999/02/22-rdf-syntax-ns#"
   xmlns:svg="http://www.w3.org/2000/svg"
   xmlns="http://www.w3.org/2000/svg"
   xmlns:sodipodi="http://sodipodi.sourceforge.net/DTD/sodipodi-0.dtd"
   xmlns:inkscape="http://www.inkscape.org/namespaces/inkscape"
   width="311.64999mm"
   height="42mm"
   viewBox="0 0 311.64999 42"
   version="1.1"
   id="svg8"
   inkscape:version="1.0.1 (3bc2e813f5, 2020-09-07)"
   sodipodi:docname="Sennheiser logo (2019).svg">
  <defs
     id="defs2" />
  <sodipodi:namedview
     id="base"
     pagecolor="#ffffff"
     bordercolor="#666666"
     borderopacity="1.0"
     inkscape:pageopacity="0.0"
     inkscape:pageshadow="2"
     inkscape:zoom="0.35"
     inkscape:cx="400"
     inkscape:cy="560"
     inkscape:document-units="mm"
     inkscape:current-layer="layer1"
     inkscape:document-rotation="0"
     showgrid="false"
     inkscape:window-width="1600"
     inkscape:window-height="837"
     inkscape:window-x="-8"
     inkscape:window-y="-8"
     inkscape:window-maximized="1"
     fit-margin-top="0"
     fit-margin-left="0"
     fit-margin-right="0"
     fit-margin-bottom="0" />
  <metadata
     id="metadata5">
    <rdf:RDF>
      <cc:Work
         rdf:about="">
        <dc:format>image/svg+xml</dc:format>
        <dc:type
           rdf:resource="http://purl.org/dc/dcmitype/StillImage" />
        <dc:title></dc:title>
      </cc:Work>
    </rdf:RDF>
  </metadata>
  <g
     inkscape:label="Calque 1"
     inkscape:groupmode="layer"
     id="layer1">
    <path
       id="path"
       sodipodi:nodetypes="ccc"
       style="fill:#000000"
       d="m 223.61,50.56 h 4.81 v 24.89 h -6.13 L 215.16,64 c -1.22,-2 -2.26,-4.13 -2.26,-4.13 h -0.07 V 75.45 H 208 V 50.56 h 5.66 l 8.45,13.56 a 18.1,18.1 0 0 1 1.45,2.81 v 0 -16.37 z m 27.66,10.19 h -8.38 v -10.2 h -6.11 v 24.89 h 6.11 V 64.82 h 8.38 v 10.62 h 6.14 V 50.55 h -6.14 z m -89.45,3.87 h 7.94 v -3.74 h -7.94 V 54.4 h 10.63 v -3.84 h -16.76 v 24.89 h 16.94 V 71.3 h -10.81 v -6.67 z m -22.06,-8.4 a 1.11,1.11 0 0 1 0.91,-1.83 h 9.11 V 50.56 H 139 a 5.31,5.31 0 0 0 -5.47,5 c 0,1.46 0.11,2.52 2.3,4.82 l 8.11,8.5 A 1.38,1.38 0 0 1 143,71.3 h -10 v 4.15 h 11.44 a 5.89,5.89 0 0 0 6.09,-5.85 c 0,-1.65 -0.39,-2.75 -2.56,-5 z m 55.08,10.68 v 0 a 18.1,18.1 0 0 0 -1.45,-2.81 l -8.45,-13.56 h -5.66 v 24.92 h 4.81 V 59.9 h 0.07 c 0,0 1,2.16 2.26,4.13 l 7.14,11.45 h 6.13 V 50.56 h -4.81 v 16.35 z m 135.1,-2.28 h 7.94 v -3.74 h -7.94 V 54.4 h 10.63 v -3.84 h -16.76 v 24.89 h 16.94 V 71.3 h -10.81 v -6.67 z m 37.71,10.83 H 361 l -4.78,-10.22 h -2.68 v 10.22 h -6.12 V 50.56 h 11.16 c 5.38,0 7.88,3.35 7.88,7.22 a 7.14,7.14 0 0 1 -4.8,6.74 z m -6.43,-17.51 c 0,-1.15 -0.67,-3.54 -3.9,-3.54 h -3.79 v 7.08 h 3.72 c 3.36,0 3.97,-2.48 3.97,-3.54 z M 307.8,56.23 a 1.11,1.11 0 0 1 0.91,-1.83 h 9.11 V 50.56 H 307 a 5.31,5.31 0 0 0 -5.47,5 c 0,1.46 0.11,2.52 2.3,4.82 l 8.11,8.5 a 1.38,1.38 0 0 1 -0.91,2.47 H 301 v 4.15 h 11.44 a 5.89,5.89 0 0 0 6.09,-5.85 c 0,-1.65 -0.39,-2.75 -2.56,-5 z m -35.91,8.4 h 7.94 V 60.88 H 271.9 V 54.4 h 10.63 v -3.84 h -16.76 v 24.89 h 16.94 V 71.3 H 271.9 v -6.67 z m 17.48,10.83 h 6.13 v -24.9 h -6.13 V 75.45 Z M 56,42 v 42 h 56 V 42 Z m 30.82,3.87 v 0 c -3.33,1.28 -6.53,4.1 -9.11,9.76 -0.75,1.64 -2.16,4.81 -2.8,6.23 C 69.72,73.25 67.06,75.7 59.23,75.7 V 45.15 h 27.45 a 0.37,0.37 0 0 1 0.14,0.72 z m 22,4.42 v 30.56 h -27.5 a 0.37,0.37 0 0 1 -0.13,-0.72 v 0 c 3.33,-1.28 6.53,-4.1 9.11,-9.76 0.75,-1.64 2.16,-4.81 2.8,-6.23 5.18,-11.39 7.84,-13.84 15.67,-13.84 z"
       transform="translate(-56,-42)" />
  </g>
</svg>
